<mxfile host="app.diagrams.net" agent="Mozilla/5.0 (Windows NT 10.0; Win64; x64) AppleWebKit/537.36 (KHTML, like Gecko) Chrome/129.0.0.0 Safari/537.36" version="24.7.17">
  <diagram name="Page-1" id="dI9v0kb1tNZPXvuik4Yu">
    <mxGraphModel dx="1948" dy="626" grid="1" gridSize="10" guides="1" tooltips="1" connect="1" arrows="1" fold="1" page="1" pageScale="1" pageWidth="827" pageHeight="1169" math="0" shadow="0">
      <root>
        <mxCell id="0" />
        <mxCell id="1" parent="0" />
        <mxCell id="C8IUFo6uYzEw7o_-S4zf-7" style="edgeStyle=orthogonalEdgeStyle;rounded=0;orthogonalLoop=1;jettySize=auto;html=1;entryX=0.5;entryY=0;entryDx=0;entryDy=0;" edge="1" parent="1" source="C8IUFo6uYzEw7o_-S4zf-1" target="C8IUFo6uYzEw7o_-S4zf-3">
          <mxGeometry relative="1" as="geometry" />
        </mxCell>
        <mxCell id="C8IUFo6uYzEw7o_-S4zf-1" value="&lt;b&gt;&lt;font style=&quot;font-size: 21px;&quot; face=&quot;Times New Roman&quot;&gt;Demande de la carte guichet&lt;/font&gt;&lt;/b&gt;" style="ellipse;whiteSpace=wrap;html=1;fillColor=#fff2cc;strokeColor=#d6b656;" vertex="1" parent="1">
          <mxGeometry x="250" y="20" width="300" height="100" as="geometry" />
        </mxCell>
        <mxCell id="C8IUFo6uYzEw7o_-S4zf-2" value="&lt;font color=&quot;#9ac7bf&quot;&gt;événement&amp;nbsp;&lt;/font&gt;" style="text;html=1;align=center;verticalAlign=middle;resizable=0;points=[];autosize=1;strokeColor=none;fillColor=none;" vertex="1" parent="1">
          <mxGeometry x="665" y="60" width="90" height="30" as="geometry" />
        </mxCell>
        <mxCell id="C8IUFo6uYzEw7o_-S4zf-3" value="" style="rounded=0;whiteSpace=wrap;html=1;" vertex="1" parent="1">
          <mxGeometry x="205" y="180" width="390" height="100" as="geometry" />
        </mxCell>
        <mxCell id="C8IUFo6uYzEw7o_-S4zf-12" style="edgeStyle=orthogonalEdgeStyle;rounded=0;orthogonalLoop=1;jettySize=auto;html=1;entryX=0.5;entryY=0;entryDx=0;entryDy=0;" edge="1" parent="1" source="C8IUFo6uYzEw7o_-S4zf-5" target="C8IUFo6uYzEw7o_-S4zf-11">
          <mxGeometry relative="1" as="geometry">
            <mxPoint x="195" y="340" as="targetPoint" />
          </mxGeometry>
        </mxCell>
        <mxCell id="C8IUFo6uYzEw7o_-S4zf-16" style="edgeStyle=orthogonalEdgeStyle;rounded=0;orthogonalLoop=1;jettySize=auto;html=1;" edge="1" parent="1" source="C8IUFo6uYzEw7o_-S4zf-5">
          <mxGeometry relative="1" as="geometry">
            <mxPoint x="160" y="230" as="targetPoint" />
          </mxGeometry>
        </mxCell>
        <mxCell id="C8IUFo6uYzEw7o_-S4zf-5" value="le demandeur est un&lt;div&gt;client de l&#39;agence&lt;/div&gt;" style="rounded=0;whiteSpace=wrap;html=1;fillColor=#d5e8d4;strokeColor=#82b366;" vertex="1" parent="1">
          <mxGeometry x="230" y="200" width="170" height="60" as="geometry" />
        </mxCell>
        <mxCell id="C8IUFo6uYzEw7o_-S4zf-8" style="edgeStyle=orthogonalEdgeStyle;rounded=0;orthogonalLoop=1;jettySize=auto;html=1;" edge="1" parent="1" source="C8IUFo6uYzEw7o_-S4zf-6" target="C8IUFo6uYzEw7o_-S4zf-9">
          <mxGeometry relative="1" as="geometry">
            <mxPoint x="720" y="280" as="targetPoint" />
          </mxGeometry>
        </mxCell>
        <mxCell id="C8IUFo6uYzEw7o_-S4zf-6" value="le demandeur n&#39;est pas un&amp;nbsp;&lt;span style=&quot;background-color: initial;&quot;&gt;client de&amp;nbsp; l&#39;agence&lt;/span&gt;" style="rounded=0;whiteSpace=wrap;html=1;fillColor=#f8cecc;strokeColor=#b85450;" vertex="1" parent="1">
          <mxGeometry x="400" y="200" width="170" height="60" as="geometry" />
        </mxCell>
        <mxCell id="C8IUFo6uYzEw7o_-S4zf-9" value="La carte guichet n&#39;est&amp;nbsp;&lt;div&gt;pas accordé&amp;nbsp;&lt;/div&gt;" style="ellipse;whiteSpace=wrap;html=1;fillColor=#f8cecc;strokeColor=#b85450;" vertex="1" parent="1">
          <mxGeometry x="620" y="270" width="190" height="80" as="geometry" />
        </mxCell>
        <mxCell id="C8IUFo6uYzEw7o_-S4zf-20" style="edgeStyle=orthogonalEdgeStyle;rounded=0;orthogonalLoop=1;jettySize=auto;html=1;" edge="1" parent="1" source="C8IUFo6uYzEw7o_-S4zf-11">
          <mxGeometry relative="1" as="geometry">
            <mxPoint x="330" y="450" as="targetPoint" />
          </mxGeometry>
        </mxCell>
        <mxCell id="C8IUFo6uYzEw7o_-S4zf-11" value="la carte guichet est accordé" style="ellipse;whiteSpace=wrap;html=1;fillColor=#d5e8d4;strokeColor=#82b366;" vertex="1" parent="1">
          <mxGeometry x="390" y="320" width="170" height="80" as="geometry" />
        </mxCell>
        <mxCell id="C8IUFo6uYzEw7o_-S4zf-19" style="edgeStyle=orthogonalEdgeStyle;rounded=0;orthogonalLoop=1;jettySize=auto;html=1;" edge="1" parent="1" source="C8IUFo6uYzEw7o_-S4zf-13">
          <mxGeometry relative="1" as="geometry">
            <mxPoint x="290" y="450" as="targetPoint" />
          </mxGeometry>
        </mxCell>
        <mxCell id="C8IUFo6uYzEw7o_-S4zf-13" value="carte guichet reçu du centre des gestions des cartes" style="ellipse;whiteSpace=wrap;html=1;fillColor=#dae8fc;strokeColor=#6c8ebf;" vertex="1" parent="1">
          <mxGeometry x="30" y="317.5" width="200" height="82.5" as="geometry" />
        </mxCell>
        <mxCell id="C8IUFo6uYzEw7o_-S4zf-14" value="Demander au centre des gestions des cartes de préparé la carte du client" style="ellipse;whiteSpace=wrap;html=1;fillColor=#dae8fc;strokeColor=#6c8ebf;" vertex="1" parent="1">
          <mxGeometry x="-90" y="190" width="240" height="90" as="geometry" />
        </mxCell>
        <mxCell id="C8IUFo6uYzEw7o_-S4zf-17" value="" style="triangle;whiteSpace=wrap;html=1;rotation=89;" vertex="1" parent="1">
          <mxGeometry x="280" y="420" width="54.91" height="130" as="geometry" />
        </mxCell>
        <mxCell id="C8IUFo6uYzEw7o_-S4zf-22" value="L&#39;agence envoie au client&amp;nbsp;un avis de mise à disposition et un avis de prélèvement de la cotisation" style="swimlane;whiteSpace=wrap;html=1;startSize=80;" vertex="1" parent="1">
          <mxGeometry x="160" y="520" width="305" height="170" as="geometry" />
        </mxCell>
        <mxCell id="C8IUFo6uYzEw7o_-S4zf-23" value="Client retire sa carte&amp;nbsp;&lt;div&gt;au bout de 2 mois&lt;/div&gt;" style="rounded=0;whiteSpace=wrap;html=1;fillColor=#e1d5e7;strokeColor=#9673a6;" vertex="1" parent="C8IUFo6uYzEw7o_-S4zf-22">
          <mxGeometry x="12.54000000000002" y="100" width="120" height="60" as="geometry" />
        </mxCell>
        <mxCell id="C8IUFo6uYzEw7o_-S4zf-26" value="Client ne retire pas sa carte au bout de&amp;nbsp;&lt;div&gt;2 mois&lt;/div&gt;" style="rounded=0;whiteSpace=wrap;html=1;fillColor=#ffe6cc;strokeColor=#d79b00;" vertex="1" parent="C8IUFo6uYzEw7o_-S4zf-22">
          <mxGeometry x="160.00000000000003" y="100" width="120" height="60" as="geometry" />
        </mxCell>
        <mxCell id="C8IUFo6uYzEw7o_-S4zf-27" value="Destruction de la carte" style="ellipse;whiteSpace=wrap;html=1;fillColor=#ffe6cc;strokeColor=#d79b00;" vertex="1" parent="1">
          <mxGeometry x="580" y="720" width="175" height="70" as="geometry" />
        </mxCell>
        <mxCell id="C8IUFo6uYzEw7o_-S4zf-28" style="edgeStyle=orthogonalEdgeStyle;rounded=0;orthogonalLoop=1;jettySize=auto;html=1;entryX=0.5;entryY=0;entryDx=0;entryDy=0;" edge="1" parent="1" source="C8IUFo6uYzEw7o_-S4zf-26" target="C8IUFo6uYzEw7o_-S4zf-27">
          <mxGeometry relative="1" as="geometry" />
        </mxCell>
        <mxCell id="C8IUFo6uYzEw7o_-S4zf-29" value="Client obtient sa carte guichet" style="ellipse;whiteSpace=wrap;html=1;fillColor=#e1d5e7;strokeColor=#9673a6;" vertex="1" parent="1">
          <mxGeometry x="-130" y="720" width="180" height="70" as="geometry" />
        </mxCell>
        <mxCell id="C8IUFo6uYzEw7o_-S4zf-30" style="edgeStyle=orthogonalEdgeStyle;rounded=0;orthogonalLoop=1;jettySize=auto;html=1;entryX=0.5;entryY=0;entryDx=0;entryDy=0;" edge="1" parent="1" source="C8IUFo6uYzEw7o_-S4zf-23" target="C8IUFo6uYzEw7o_-S4zf-29">
          <mxGeometry relative="1" as="geometry" />
        </mxCell>
      </root>
    </mxGraphModel>
  </diagram>
</mxfile>
